<svg xmlns="http://www.w3.org/2000/svg" id="SvgjsSvg1663" width="4096" height="1369.939063286728" version="1.1" xmlns:xlink="http://www.w3.org/1999/xlink" xmlns:svgjs="http://svgjs.com/svgjs"><defs id="SvgjsDefs1664"></defs><g id="SvgjsG1665" transform="translate(328, 327.99999999999994) scale(34.4)" opacity="1"><defs id="SvgjsDefs1253"></defs><g id="SvgjsG1254" transform="scale(0.21645021645021645)" opacity="1"><g id="SvgjsG1255" class="Zi4oSl772" transform="translate(-7.489078040076679, -21.93200051520127) scale(1.3974767755321311)" light-content="false" fill="#29292e"><g fill-rule="evenodd" clip-rule="evenodd"><path d="M44.062 84.306c-.026-22.58 18.41-41.016 41.015-41.016 2.296 0 4.549.19 6.566.685l2.998-7.429c-2.899-.843-6.193-1.187-9.564-1.187-26.973 0-48.972 21.999-48.983 48.947h7.968zm17.044 0c-.018-13.189 10.758-23.965 24.108-23.93l3.16-8.196a32.356 32.356 0 0 0-3.296-.167c-17.8 0-32.318 14.518-32.319 32.293h8.347z"></path><path d="M55.938 15.694c.026 22.58-18.41 41.016-41.015 41.016-2.296 0-4.549-.19-6.566-.685l-2.998 7.429c2.899.843 6.193 1.187 9.564 1.187 26.973 0 48.972-21.999 48.983-48.947h-7.968zm-17.044 0c.018 13.189-10.758 23.965-24.108 23.93l-3.16 8.196c1.084.111 2.184.167 3.296.167 17.8 0 32.318-14.518 32.319-32.293h-8.347z"></path></g></g><g id="SvgjsG1256" class="text" transform="translate(297.17268265401157, 64.56681219483276) scale(1)" light-content="false" fill="#29292e"><path d="M-152.39 -32.5L-159.6 -32.5L-163.03 -7.35C-163.38 -5.02 -162.94 -3.19 -161.71 -1.86C-160.49 -0.53 -158.72 0.14 -156.39 0.14C-150.36 0.14 -145.81 -0.02 -142.73 -0.33L-142.59 -5.84L-153.71 -5.84C-154.62 -5.84 -155.22 -6.04 -155.52 -6.43C-155.82 -6.82 -155.92 -7.43 -155.83 -8.24Z M-122.95 -33.11C-127.94 -33.11 -131.59 -31.91 -133.9 -29.51C-136.21 -27.11 -137.8 -22.78 -138.68 -16.53C-139.53 -10.13 -139.01 -5.67 -137.13 -3.16C-135.25 -0.64 -131.76 0.61 -126.67 0.61C-121.71 0.61 -118.08 -0.57 -115.77 -2.92C-113.46 -5.28 -111.88 -9.62 -111.04 -15.97C-110.16 -22.28 -110.68 -26.71 -112.59 -29.27C-114.51 -31.83 -117.96 -33.11 -122.95 -33.11ZM-123.19 -27.32C-120.74 -27.32 -119.19 -26.6 -118.55 -25.15C-117.9 -23.71 -117.9 -20.83 -118.52 -16.53C-119.18 -12.07 -120.06 -9.07 -121.16 -7.51C-122.26 -5.96 -124.05 -5.18 -126.53 -5.18C-128.95 -5.18 -130.47 -5.92 -131.1 -7.39C-131.73 -8.87 -131.74 -11.73 -131.15 -15.97C-130.49 -20.49 -129.62 -23.51 -128.56 -25.03C-127.49 -26.56 -125.7 -27.32 -123.19 -27.32Z M-89.14 -8.48L-88.05 0L-80.89 0L-85.98 -30.47C-86.01 -31.04 -86.25 -31.52 -86.71 -31.91C-87.16 -32.3 -87.69 -32.5 -88.29 -32.5L-95.07 -32.5C-96.36 -32.5 -97.22 -31.92 -97.66 -30.76L-111.32 0L-103.83 0L-100.34 -8.48ZM-89.89 -14.18L-97.99 -14.18L-93.89 -24.07C-93.7 -24.54 -93.33 -25.57 -92.76 -27.18L-91.4 -27.18C-91.33 -25.76 -91.25 -24.71 -91.16 -24.02Z M-45.85 -32.5L-52.68 -32.5L-55.27 -13.42C-55.49 -11.79 -55.6 -10.05 -55.6 -8.2L-56.17 -8.2C-56.57 -9.8 -57.14 -11.55 -57.86 -13.47L-64.13 -30.24C-64.44 -31.02 -64.78 -31.6 -65.16 -31.96C-65.54 -32.32 -66.07 -32.5 -66.76 -32.5L-70.72 -32.5C-72.32 -32.5 -73.23 -31.68 -73.45 -30.05L-77.69 0L-70.86 0L-68.18 -19.4C-67.99 -20.88 -67.86 -22.58 -67.8 -24.49L-67.33 -24.49C-66.98 -22.8 -66.51 -21.16 -65.92 -19.59L-59.46 -2.26C-59.12 -1.44 -58.76 -0.86 -58.4 -0.52C-58.04 -0.17 -57.5 0 -56.78 0L-52.77 0C-51.2 0 -50.31 -0.82 -50.09 -2.45Z M-40.62 -26.52C-37.42 -26.8 -34.08 -26.94 -30.59 -26.94C-29.12 -26.94 -28.09 -26.81 -27.53 -26.54C-26.96 -26.27 -26.74 -25.68 -26.87 -24.77C-27.03 -23.64 -27.64 -22.42 -28.71 -21.1C-29.77 -19.78 -31.6 -17.94 -34.17 -15.59L-43.35 -7.06C-43.92 -6.47 -44.31 -5.49 -44.53 -4.14L-45.14 0L-22.11 0L-21.27 -6.45L-30.83 -6.45C-32.68 -6.45 -34.26 -6.31 -35.58 -6.03L-26.12 -14.74C-23.89 -16.81 -22.31 -18.62 -21.38 -20.16C-20.46 -21.7 -19.88 -23.39 -19.66 -25.25C-19.51 -26.82 -19.62 -28.12 -19.99 -29.15C-20.37 -30.19 -21.05 -30.99 -22.02 -31.56C-22.99 -32.12 -24.1 -32.51 -25.34 -32.73C-26.58 -32.95 -28.09 -33.06 -29.88 -33.06C-33.34 -33.06 -36.9 -32.7 -40.58 -31.98Z M28.61 -32.5L21.31 -32.5L15.1 -9.99C14.78 -8.85 14.39 -7.22 13.92 -5.09L12.93 -5.09C12.96 -6.15 12.94 -7.71 12.88 -9.75L11.99 -30.14C11.99 -30.8 11.77 -31.36 11.35 -31.82C10.93 -32.27 10.39 -32.5 9.73 -32.5L3.65 -32.5C2.24 -32.5 1.33 -31.81 0.92 -30.43L-5.35 -10.08C-6.1 -7.41 -6.55 -5.75 -6.71 -5.09L-7.65 -5.09C-7.65 -5.4 -7.63 -6.13 -7.58 -7.28C-7.54 -8.42 -7.51 -9.26 -7.51 -9.8L-7.51 -32.5L-14.67 -32.5L-13.68 -2.12C-13.68 -1.52 -13.44 -1.02 -12.95 -0.61C-12.47 -0.2 -11.91 0 -11.28 0L-4.45 0C-3.04 0 -2.14 -0.63 -1.77 -1.88L4.69 -23.13C5 -24.19 5.36 -25.59 5.77 -27.32L6.66 -27.32L6.66 -23.17L7.28 -2.17C7.31 -1.57 7.56 -1.06 8.03 -0.64C8.5 -0.21 9.05 0 9.68 0L16.46 0C17.84 0 18.72 -0.61 19.1 -1.84Z M58.71 -32.5L51.55 -32.5L49.81 -20.06L38.5 -20.06L40.25 -32.5L33.04 -32.5L28.47 0L35.68 0L37.75 -14.46L49.01 -14.46L46.98 0L54.14 0Z M85.93 -26.85L86.83 -32.12C83.69 -32.47 78.69 -32.64 71.85 -32.64C69.62 -32.64 67.84 -32.07 66.5 -30.94C65.17 -29.81 64.36 -28.24 64.08 -26.23L61.49 -7.68C61.17 -5.26 61.63 -3.35 62.85 -1.95C64.08 -0.56 66.01 0.14 68.65 0.14C75.27 0.14 79.97 -0.02 82.73 -0.33L82.92 -5.65L70.91 -5.65C70.03 -5.65 69.42 -5.83 69.09 -6.19C68.76 -6.55 68.66 -7.17 68.79 -8.05L69.64 -14.32L82.49 -14.32L83.15 -19.4L70.34 -19.4L71.05 -24.3C71.17 -25.28 71.43 -25.94 71.83 -26.3C72.22 -26.67 72.87 -26.85 73.78 -26.85Z M112.87 -26.85L113.77 -32.12C110.63 -32.47 105.64 -32.64 98.79 -32.64C96.56 -32.64 94.78 -32.07 93.44 -30.94C92.11 -29.81 91.3 -28.24 91.02 -26.23L88.43 -7.68C88.11 -5.26 88.57 -3.35 89.79 -1.95C91.02 -0.56 92.95 0.14 95.59 0.14C102.21 0.14 106.91 -0.02 109.67 -0.33L109.86 -5.65L97.85 -5.65C96.97 -5.65 96.36 -5.83 96.04 -6.19C95.71 -6.55 95.6 -7.17 95.73 -8.05L96.58 -14.32L109.43 -14.32L110.09 -19.4L97.28 -19.4L97.99 -24.3C98.12 -25.28 98.37 -25.94 98.77 -26.3C99.16 -26.67 99.81 -26.85 100.72 -26.85Z M126.2 -32.5L119 -32.5L115.56 -7.35C115.21 -5.02 115.65 -3.19 116.88 -1.86C118.1 -0.53 119.88 0.14 122.2 0.14C128.23 0.14 132.78 -0.02 135.86 -0.33L136 -5.84L124.88 -5.84C123.97 -5.84 123.37 -6.04 123.07 -6.43C122.77 -6.82 122.67 -7.43 122.76 -8.24Z M153.33 -12.34C154.4 -11.93 155.09 -11.52 155.4 -11.12C155.72 -10.71 155.81 -9.97 155.69 -8.9C155.47 -7.52 154.96 -6.62 154.18 -6.19C153.39 -5.77 151.9 -5.56 149.7 -5.56C149.61 -5.56 146.23 -5.64 139.58 -5.79L138.82 -0.66C142.62 0.19 146.34 0.61 149.99 0.61C154.38 0.61 157.5 -0.01 159.34 -1.25C161.17 -2.49 162.33 -4.9 162.8 -8.48C163.11 -11.02 162.88 -13.02 162.09 -14.48C161.31 -15.94 159.67 -17.16 157.19 -18.13L151.35 -20.39C150.13 -20.86 149.35 -21.31 149.02 -21.74C148.69 -22.16 148.61 -22.91 148.76 -23.97C148.98 -25.42 149.44 -26.3 150.13 -26.63C150.82 -26.96 152.12 -27.11 154.04 -27.08C157.93 -27.08 161.29 -27.03 164.12 -26.94L164.82 -31.79C161.81 -32.67 158.28 -33.11 154.23 -33.11C150.14 -33.11 147.14 -32.52 145.21 -31.34C143.28 -30.17 142.07 -27.85 141.6 -24.4C141.32 -22.07 141.59 -20.14 142.4 -18.6C143.22 -17.07 144.81 -15.81 147.16 -14.84Z"></path></g></g></g></svg>